<svg width="823" height="286" viewBox="0 0 823 286" fill="none" xmlns="http://www.w3.org/2000/svg">
<rect y="51.7904" width="370" height="230" transform="rotate(-5 0 51.7904)" fill="white"/>
<path d="M109.763 106.71H136.443L144.033 67.61H173.933L166.343 106.71H183.133V133.16H161.283L155.763 161.45H183.133V187.9H150.703L143.343 227H113.443L120.803 187.9H94.1233L86.7633 227H56.8633L64.2233 187.9H47.6633V161.45H69.2833L74.8033 133.16H47.6633V106.71H79.8633L87.4533 67.61H117.353L109.763 106.71ZM99.1833 161.45H125.863L131.383 133.16H104.703L99.1833 161.45ZM243.002 98.1865V162.649H275.233C279.65 162.649 283.806 161.826 287.699 160.179C291.592 158.457 294.999 156.136 297.919 153.216C300.839 150.296 303.122 146.889 304.769 142.996C306.491 139.028 307.352 134.835 307.352 130.418C307.352 126.001 306.491 121.845 304.769 117.952C303.122 113.984 300.839 110.54 297.919 107.62C294.999 104.7 291.592 102.417 287.699 100.77C283.806 99.0475 279.65 98.1865 275.233 98.1865H243.002ZM243.002 227H210.77V65.9551H275.233C281.148 65.9551 286.838 66.7412 292.303 68.3135C297.769 69.8109 302.86 71.9821 307.577 74.8271C312.368 77.5973 316.711 80.9665 320.604 84.9346C324.572 88.8278 327.941 93.1702 330.712 97.9619C333.557 102.754 335.728 107.882 337.225 113.348C338.798 118.813 339.584 124.503 339.584 130.418C339.584 135.958 338.872 141.349 337.45 146.59C336.102 151.831 334.118 156.81 331.498 161.526C328.952 166.243 325.808 170.586 322.064 174.554C318.321 178.522 314.128 181.966 309.486 184.886L327.342 227H293.09L279.051 194.544L243.002 194.769V227Z" fill="#EA580C"/>
<path d="M405.394 197.576C406.592 197.951 407.79 198.213 408.988 198.362C410.186 198.437 411.384 198.475 412.582 198.475C415.576 198.475 418.459 198.063 421.229 197.239C423.999 196.416 426.582 195.255 428.978 193.758C431.449 192.186 433.62 190.314 435.492 188.143C437.438 185.896 439.011 183.426 440.209 180.73L462.67 203.304C459.825 207.347 456.53 210.978 452.787 214.197C449.118 217.417 445.113 220.149 440.77 222.396C436.503 224.642 431.973 226.326 427.181 227.449C422.465 228.647 417.598 229.246 412.582 229.246C404.121 229.246 396.148 227.674 388.661 224.529C381.249 221.385 374.735 217.005 369.12 211.39C363.579 205.774 359.2 199.111 355.98 191.399C352.761 183.613 351.151 175.078 351.151 165.794C351.151 156.285 352.761 147.601 355.98 139.739C359.2 131.878 363.579 125.177 369.12 119.637C374.735 114.096 381.249 109.791 388.661 106.722C396.148 103.652 404.121 102.117 412.582 102.117C417.598 102.117 422.502 102.716 427.294 103.914C432.085 105.112 436.615 106.834 440.882 109.08C445.225 111.326 449.268 114.096 453.011 117.391C456.755 120.61 460.049 124.241 462.894 128.284L405.394 197.576ZM421.117 134.349C419.694 133.825 418.272 133.488 416.849 133.338C415.502 133.188 414.079 133.113 412.582 133.113C408.389 133.113 404.421 133.899 400.677 135.472C397.009 136.969 393.789 139.14 391.019 141.985C388.324 144.83 386.19 148.274 384.618 152.317C383.046 156.285 382.259 160.778 382.259 165.794C382.259 166.917 382.297 168.19 382.372 169.612C382.521 171.035 382.709 172.495 382.933 173.992C383.233 175.415 383.57 176.8 383.944 178.147C384.318 179.495 384.805 180.693 385.404 181.741L421.117 134.349ZM544.427 227H474.349V196.453H544.427C546.524 196.453 548.321 195.704 549.818 194.207C551.315 192.71 552.064 190.913 552.064 188.816C552.064 186.645 551.315 185.223 549.818 184.549C548.321 183.875 546.524 183.538 544.427 183.538H512.533C507.217 183.538 502.238 182.527 497.596 180.506C492.954 178.484 488.911 175.752 485.467 172.308C482.023 168.789 479.291 164.708 477.269 160.066C475.323 155.424 474.349 150.446 474.349 145.13C474.349 139.814 475.323 134.835 477.269 130.193C479.291 125.551 482.023 121.508 485.467 118.064C488.911 114.62 492.954 111.925 497.596 109.979C502.238 107.957 507.217 106.946 512.533 106.946H574.637V137.493H512.533C510.437 137.493 508.64 138.242 507.142 139.739C505.645 141.237 504.896 143.034 504.896 145.13C504.896 147.301 505.645 149.173 507.142 150.745C508.64 152.243 510.437 152.991 512.533 152.991H544.427C549.668 152.991 554.61 153.89 559.252 155.687C563.894 157.409 567.937 159.842 571.381 162.986C574.825 166.131 577.557 169.912 579.579 174.329C581.6 178.746 582.611 183.576 582.611 188.816C582.611 194.132 581.6 199.111 579.579 203.753C577.557 208.32 574.825 212.363 571.381 215.882C567.937 219.326 563.894 222.059 559.252 224.08C554.61 226.027 549.668 227 544.427 227ZM659.315 227C651.903 227 644.94 225.615 638.426 222.845C631.913 220 626.185 216.144 621.244 211.277C616.377 206.336 612.521 200.608 609.676 194.095C606.906 187.581 605.521 180.618 605.521 173.206V137.493H590.585V106.946H605.521V58.8799H636.068V106.946H682.562V137.493H636.068V173.206C636.068 176.425 636.667 179.458 637.865 182.303C639.063 185.073 640.71 187.506 642.806 189.603C644.903 191.699 647.373 193.383 650.218 194.656C653.063 195.854 656.096 196.453 659.315 196.453H682.562V227H659.315ZM816.092 165.794C816.092 174.778 814.483 183.164 811.263 190.95C808.044 198.662 803.664 205.363 798.124 211.053C792.583 216.668 786.07 221.123 778.583 224.417C771.171 227.636 763.197 229.246 754.662 229.246C746.201 229.246 738.228 227.636 730.741 224.417C723.329 221.123 716.815 216.668 711.2 211.053C705.659 205.363 701.28 198.662 698.06 190.95C694.841 183.164 693.231 174.778 693.231 165.794C693.231 156.66 694.841 148.2 698.06 140.413C701.28 132.627 705.659 125.926 711.2 120.311C716.815 114.62 723.329 110.166 730.741 106.946C738.228 103.727 746.201 102.117 754.662 102.117C763.197 102.117 771.171 103.652 778.583 106.722C786.07 109.716 792.583 114.021 798.124 119.637C803.664 125.177 808.044 131.878 811.263 139.739C814.483 147.526 816.092 156.211 816.092 165.794ZM785.209 165.794C785.209 160.853 784.385 156.398 782.738 152.43C781.166 148.387 778.994 144.943 776.224 142.098C773.454 139.178 770.197 136.969 766.454 135.472C762.785 133.899 758.854 133.113 754.662 133.113C750.469 133.113 746.501 133.899 742.757 135.472C739.089 136.969 735.869 139.178 733.099 142.098C730.404 144.943 728.27 148.387 726.698 152.43C725.126 156.398 724.34 160.853 724.34 165.794C724.34 170.436 725.126 174.741 726.698 178.709C728.27 182.677 730.404 186.121 733.099 189.041C735.869 191.961 739.089 194.282 742.757 196.004C746.501 197.651 750.469 198.475 754.662 198.475C758.854 198.475 762.785 197.688 766.454 196.116C770.197 194.544 773.454 192.335 776.224 189.49C778.994 186.645 781.166 183.201 782.738 179.158C784.385 175.115 785.209 170.66 785.209 165.794Z" fill="#EA580C"/>
<path d="M405.394 197.576C406.592 197.951 407.79 198.213 408.988 198.362C410.186 198.437 411.384 198.475 412.582 198.475C415.576 198.475 418.459 198.063 421.229 197.239C423.999 196.416 426.582 195.255 428.978 193.758C431.449 192.186 433.62 190.314 435.492 188.143C437.438 185.896 439.011 183.426 440.209 180.73L462.67 203.304C459.825 207.347 456.53 210.978 452.787 214.197C449.118 217.417 445.113 220.149 440.77 222.396C436.503 224.642 431.973 226.326 427.181 227.449C422.465 228.647 417.598 229.246 412.582 229.246C404.121 229.246 396.148 227.674 388.661 224.529C381.249 221.385 374.735 217.005 369.12 211.39C363.579 205.774 359.2 199.111 355.98 191.399C352.761 183.613 351.151 175.078 351.151 165.794C351.151 156.285 352.761 147.601 355.98 139.739C359.2 131.878 363.579 125.177 369.12 119.637C374.735 114.096 381.249 109.791 388.661 106.722C396.148 103.652 404.121 102.117 412.582 102.117C417.598 102.117 422.502 102.716 427.294 103.914C432.085 105.112 436.615 106.834 440.882 109.08C445.225 111.326 449.268 114.096 453.011 117.391C456.755 120.61 460.049 124.241 462.894 128.284L405.394 197.576ZM421.117 134.349C419.694 133.825 418.272 133.488 416.849 133.338C415.502 133.188 414.079 133.113 412.582 133.113C408.389 133.113 404.421 133.899 400.677 135.472C397.009 136.969 393.789 139.14 391.019 141.985C388.324 144.83 386.19 148.274 384.618 152.317C383.046 156.285 382.259 160.778 382.259 165.794C382.259 166.917 382.297 168.19 382.372 169.612C382.521 171.035 382.709 172.495 382.933 173.992C383.233 175.415 383.57 176.8 383.944 178.147C384.318 179.495 384.805 180.693 385.404 181.741L421.117 134.349ZM544.427 227H474.349V196.453H544.427C546.524 196.453 548.321 195.704 549.818 194.207C551.315 192.71 552.064 190.913 552.064 188.816C552.064 186.645 551.315 185.223 549.818 184.549C548.321 183.875 546.524 183.538 544.427 183.538H512.533C507.217 183.538 502.238 182.527 497.596 180.506C492.954 178.484 488.911 175.752 485.467 172.308C482.023 168.789 479.291 164.708 477.269 160.066C475.323 155.424 474.349 150.446 474.349 145.13C474.349 139.814 475.323 134.835 477.269 130.193C479.291 125.551 482.023 121.508 485.467 118.064C488.911 114.62 492.954 111.925 497.596 109.979C502.238 107.957 507.217 106.946 512.533 106.946H574.637V137.493H512.533C510.437 137.493 508.64 138.242 507.142 139.739C505.645 141.237 504.896 143.034 504.896 145.13C504.896 147.301 505.645 149.173 507.142 150.745C508.64 152.243 510.437 152.991 512.533 152.991H544.427C549.668 152.991 554.61 153.89 559.252 155.687C563.894 157.409 567.937 159.842 571.381 162.986C574.825 166.131 577.557 169.912 579.579 174.329C581.6 178.746 582.611 183.576 582.611 188.816C582.611 194.132 581.6 199.111 579.579 203.753C577.557 208.32 574.825 212.363 571.381 215.882C567.937 219.326 563.894 222.059 559.252 224.08C554.61 226.027 549.668 227 544.427 227ZM659.315 227C651.903 227 644.94 225.615 638.426 222.845C631.913 220 626.185 216.144 621.244 211.277C616.377 206.336 612.521 200.608 609.676 194.095C606.906 187.581 605.521 180.618 605.521 173.206V137.493H590.585V106.946H605.521V58.8799H636.068V106.946H682.562V137.493H636.068V173.206C636.068 176.425 636.667 179.458 637.865 182.303C639.063 185.073 640.71 187.506 642.806 189.603C644.903 191.699 647.373 193.383 650.218 194.656C653.063 195.854 656.096 196.453 659.315 196.453H682.562V227H659.315ZM816.092 165.794C816.092 174.778 814.483 183.164 811.263 190.95C808.044 198.662 803.664 205.363 798.124 211.053C792.583 216.668 786.07 221.123 778.583 224.417C771.171 227.636 763.197 229.246 754.662 229.246C746.201 229.246 738.228 227.636 730.741 224.417C723.329 221.123 716.815 216.668 711.2 211.053C705.659 205.363 701.28 198.662 698.06 190.95C694.841 183.164 693.231 174.778 693.231 165.794C693.231 156.66 694.841 148.2 698.06 140.413C701.28 132.627 705.659 125.926 711.2 120.311C716.815 114.62 723.329 110.166 730.741 106.946C738.228 103.727 746.201 102.117 754.662 102.117C763.197 102.117 771.171 103.652 778.583 106.722C786.07 109.716 792.583 114.021 798.124 119.637C803.664 125.177 808.044 131.878 811.263 139.739C814.483 147.526 816.092 156.211 816.092 165.794ZM785.209 165.794C785.209 160.853 784.385 156.398 782.738 152.43C781.166 148.387 778.994 144.943 776.224 142.098C773.454 139.178 770.197 136.969 766.454 135.472C762.785 133.899 758.854 133.113 754.662 133.113C750.469 133.113 746.501 133.899 742.757 135.472C739.089 136.969 735.869 139.178 733.099 142.098C730.404 144.943 728.27 148.387 726.698 152.43C725.126 156.398 724.34 160.853 724.34 165.794C724.34 170.436 725.126 174.741 726.698 178.709C728.27 182.677 730.404 186.121 733.099 189.041C735.869 191.961 739.089 194.282 742.757 196.004C746.501 197.651 750.469 198.475 754.662 198.475C758.854 198.475 762.785 197.688 766.454 196.116C770.197 194.544 773.454 192.335 776.224 189.49C778.994 186.645 781.166 183.201 782.738 179.158C784.385 175.115 785.209 170.66 785.209 165.794Z" fill="white"/>
<path d="M386.5 223.5L377 113C359.29 128.874 353.608 139.991 351.5 164C352.314 194.403 362.467 209.261 386.5 223.5Z" fill="#EA580C"/>
</svg>
