<svg width="822" height="286" viewBox="0 0 822 286" fill="none" xmlns="http://www.w3.org/2000/svg">
<rect y="51.7904" width="370" height="230" transform="rotate(-5 0 51.7904)" fill="#EA580C"/>
<path d="M109.763 106.71H136.443L144.033 67.61H173.933L166.343 106.71H183.133V133.16H161.283L155.763 161.45H183.133V187.9H150.703L143.343 227H113.443L120.803 187.9H94.1233L86.7633 227H56.8633L64.2233 187.9H47.6633V161.45H69.2833L74.8033 133.16H47.6633V106.71H79.8633L87.4533 67.61H117.353L109.763 106.71ZM99.1833 161.45H125.863L131.383 133.16H104.703L99.1833 161.45ZM243.002 98.1865V162.649H275.233C279.65 162.649 283.806 161.826 287.699 160.179C291.592 158.457 294.999 156.136 297.919 153.216C300.839 150.296 303.122 146.889 304.769 142.996C306.491 139.028 307.352 134.835 307.352 130.418C307.352 126.001 306.491 121.845 304.769 117.952C303.122 113.984 300.839 110.54 297.919 107.62C294.999 104.7 291.592 102.417 287.699 100.77C283.806 99.0475 279.65 98.1865 275.233 98.1865H243.002ZM243.002 227H210.77V65.9551H275.233C281.148 65.9551 286.838 66.7412 292.303 68.3135C297.769 69.8109 302.86 71.9821 307.577 74.8271C312.368 77.5973 316.711 80.9665 320.604 84.9346C324.572 88.8278 327.941 93.1702 330.712 97.9619C333.557 102.754 335.728 107.882 337.225 113.348C338.798 118.813 339.584 124.503 339.584 130.418C339.584 135.958 338.872 141.349 337.45 146.59C336.102 151.831 334.118 156.81 331.498 161.526C328.952 166.243 325.808 170.586 322.064 174.554C318.321 178.522 314.128 181.966 309.486 184.886L327.342 227H293.09L279.051 194.544L243.002 194.769V227ZM404.047 197.576C405.244 197.951 406.442 198.213 407.64 198.362C408.838 198.437 410.036 198.475 411.234 198.475C414.229 198.475 417.111 198.063 419.882 197.239C422.652 196.416 425.235 195.255 427.631 193.758C430.101 192.186 432.272 190.314 434.144 188.143C436.091 185.896 437.663 183.426 438.861 180.73L461.322 203.304C458.477 207.347 455.183 210.978 451.439 214.197C447.77 217.417 443.765 220.149 439.423 222.396C435.155 224.642 430.625 226.326 425.834 227.449C421.117 228.647 416.25 229.246 411.234 229.246C402.774 229.246 394.8 227.674 387.313 224.529C379.901 221.385 373.387 217.005 367.772 211.39C362.232 205.774 357.852 199.111 354.632 191.399C351.413 183.613 349.803 175.078 349.803 165.794C349.803 156.285 351.413 147.601 354.632 139.739C357.852 131.878 362.232 125.177 367.772 119.637C373.387 114.096 379.901 109.791 387.313 106.722C394.8 103.652 402.774 102.117 411.234 102.117C416.25 102.117 421.154 102.716 425.946 103.914C430.738 105.112 435.267 106.834 439.535 109.08C443.877 111.326 447.92 114.096 451.664 117.391C455.407 120.61 458.701 124.241 461.547 128.284L404.047 197.576ZM419.769 134.349C418.347 133.825 416.924 133.488 415.502 133.338C414.154 133.188 412.731 133.113 411.234 133.113C407.041 133.113 403.073 133.899 399.33 135.472C395.661 136.969 392.442 139.14 389.672 141.985C386.976 144.83 384.842 148.274 383.27 152.317C381.698 156.285 380.912 160.778 380.912 165.794C380.912 166.917 380.949 168.19 381.024 169.612C381.174 171.035 381.361 172.495 381.586 173.992C381.885 175.415 382.222 176.8 382.596 178.147C382.971 179.495 383.457 180.693 384.056 181.741L419.769 134.349ZM543.08 227H473.002V196.453H543.08C545.176 196.453 546.973 195.704 548.47 194.207C549.968 192.71 550.716 190.913 550.716 188.816C550.716 186.645 549.968 185.223 548.47 184.549C546.973 183.875 545.176 183.538 543.08 183.538H511.185C505.869 183.538 500.891 182.527 496.249 180.506C491.607 178.484 487.564 175.752 484.12 172.308C480.676 168.789 477.943 164.708 475.922 160.066C473.975 155.424 473.002 150.446 473.002 145.13C473.002 139.814 473.975 134.835 475.922 130.193C477.943 125.551 480.676 121.508 484.12 118.064C487.564 114.62 491.607 111.925 496.249 109.979C500.891 107.957 505.869 106.946 511.185 106.946H573.29V137.493H511.185C509.089 137.493 507.292 138.242 505.795 139.739C504.297 141.237 503.548 143.034 503.548 145.13C503.548 147.301 504.297 149.173 505.795 150.745C507.292 152.243 509.089 152.991 511.185 152.991H543.08C548.321 152.991 553.262 153.89 557.904 155.687C562.546 157.409 566.589 159.842 570.033 162.986C573.477 166.131 576.21 169.912 578.231 174.329C580.253 178.746 581.263 183.576 581.263 188.816C581.263 194.132 580.253 199.111 578.231 203.753C576.21 208.32 573.477 212.363 570.033 215.882C566.589 219.326 562.546 222.059 557.904 224.08C553.262 226.027 548.321 227 543.08 227ZM657.967 227C650.555 227 643.592 225.615 637.079 222.845C630.565 220 624.838 216.144 619.896 211.277C615.03 206.336 611.174 200.608 608.329 194.095C605.559 187.581 604.173 180.618 604.173 173.206V137.493H589.237V106.946H604.173V58.8799H634.72V106.946H681.215V137.493H634.72V173.206C634.72 176.425 635.319 179.458 636.517 182.303C637.715 185.073 639.362 187.506 641.459 189.603C643.555 191.699 646.026 193.383 648.871 194.656C651.716 195.854 654.748 196.453 657.967 196.453H681.215V227H657.967ZM814.745 165.794C814.745 174.778 813.135 183.164 809.916 190.95C806.696 198.662 802.316 205.363 796.776 211.053C791.236 216.668 784.722 221.123 777.235 224.417C769.823 227.636 761.849 229.246 753.314 229.246C744.854 229.246 736.88 227.636 729.393 224.417C721.981 221.123 715.467 216.668 709.852 211.053C704.312 205.363 699.932 198.662 696.713 190.95C693.493 183.164 691.883 174.778 691.883 165.794C691.883 156.66 693.493 148.2 696.713 140.413C699.932 132.627 704.312 125.926 709.852 120.311C715.467 114.62 721.981 110.166 729.393 106.946C736.88 103.727 744.854 102.117 753.314 102.117C761.849 102.117 769.823 103.652 777.235 106.722C784.722 109.716 791.236 114.021 796.776 119.637C802.316 125.177 806.696 131.878 809.916 139.739C813.135 147.526 814.745 156.211 814.745 165.794ZM783.861 165.794C783.861 160.853 783.037 156.398 781.39 152.43C779.818 148.387 777.647 144.943 774.877 142.098C772.106 139.178 768.85 136.969 765.106 135.472C761.437 133.899 757.507 133.113 753.314 133.113C749.121 133.113 745.153 133.899 741.41 135.472C737.741 136.969 734.522 139.178 731.752 142.098C729.056 144.943 726.923 148.387 725.35 152.43C723.778 156.398 722.992 160.853 722.992 165.794C722.992 170.436 723.778 174.741 725.35 178.709C726.923 182.677 729.056 186.121 731.752 189.041C734.522 191.961 737.741 194.282 741.41 196.004C745.153 197.651 749.121 198.475 753.314 198.475C757.507 198.475 761.437 197.688 765.106 196.116C768.85 194.544 772.106 192.335 774.877 189.49C777.647 186.645 779.818 183.201 781.39 179.158C783.037 175.115 783.861 170.66 783.861 165.794Z" fill="white"/>
</svg>
